<svg  height='35px' fill="none" xmlns="http://www.w3.org/2000/svg">
<path d="M40.8229 16.732V0H28.0363L20.4129 14.996L12.7866 0H0V16.732H5.41261V5.46606H9.48258L17.3702 20.978L9.96918 35.5309H5.61085L5.41261 23.4819L0 23.576L0.28835 41H13.2732L20.4129 26.96L27.5527 41H40.5345L40.8229 23.576L35.4103 23.4819L35.212 35.5309H30.8537L23.4527 20.978L31.3403 5.46606H35.4103V16.732H40.8229Z" fill="#004A4C"/>
<path d="M125.424 6.74075L134.462 20.0705L125.04 33.9466H130.116L137.039 23.7641L143.924 33.9466H149L139.577 20.0705L148.616 6.74075H143.578L137.039 16.3405L130.5 6.74075H125.424Z" fill="#004A4C"/>
<path d="M115.269 32.4686C114.269 31.4853 113.77 29.9283 113.77 27.8038V18.3983H110.385V14.5499H113.884V8.68017H118.191V14.5499H123.192V18.3983H118.191V27.649C118.191 28.5049 118.357 29.1271 118.69 29.5155C119.023 29.904 119.549 30.0983 120.267 30.0983H123.189V33.9466H120.036C117.855 33.9466 116.266 33.455 115.266 32.4686H115.269Z" fill="#004A4C"/>
<path d="M85.1119 20.9658C85.1119 18.9172 84.5533 17.2844 83.4389 16.0673L83.4449 16.0704C82.3305 14.8533 80.8347 14.2433 78.9634 14.2433H76.7707C75.8727 14.2433 75.0286 14.4982 74.2326 15.002C73.4367 15.5089 72.7578 16.213 72.1932 17.1205C71.7576 16.213 71.1539 15.5059 70.3849 15.002C69.616 14.4952 68.7419 14.2433 67.7687 14.2433H65.5761C64.8041 14.2433 64.0502 14.4891 63.3053 14.9808C62.5604 15.4725 61.9446 16.1462 61.458 17.0021V14.5529H57.343V33.9466H61.7674V22.2466C61.9446 21.0265 62.3501 20.0371 62.9779 19.2723C63.6057 18.5075 64.3416 18.1251 65.1886 18.1251H66.9187C67.5585 18.1251 68.0721 18.3922 68.4566 18.9233C68.8411 19.4544 69.0333 20.1616 69.0333 21.0417V33.9466H73.4186V21.5091C73.5959 20.4742 73.9803 19.6517 74.5721 19.0416C75.1608 18.4316 75.8787 18.1281 76.7257 18.1281H78.5729C79.2127 18.1281 79.7264 18.383 80.1108 18.8869C80.4953 19.3907 80.6875 20.0705 80.6875 20.9264V33.9466H85.1119V20.9658Z" fill="#004A4C"/>
<path fill-rule="evenodd" clip-rule="evenodd" d="M89.1909 28.7749C89.1909 30.4351 89.7856 31.7614 90.9781 32.7599L90.9811 32.7629C92.1736 33.7615 93.7445 34.2592 95.6939 34.2592H98.0788C98.9739 34.2592 99.887 34.0043 100.809 33.5005C101.731 32.9966 102.5 32.3289 103.116 31.5004V33.9496H107.231V20.6957C107.231 18.7533 106.576 17.1933 105.27 16.0127C103.96 14.8321 102.23 14.2433 100.076 14.2433H96.8443C94.7147 14.2433 92.9966 14.7866 91.69 15.8761C90.3834 16.9627 89.7286 18.4012 89.7286 20.1889H94.0358C94.0358 19.5394 94.2912 19.0143 94.8048 18.6137C95.3184 18.21 95.9973 18.0097 96.8443 18.0097H100.076C100.896 18.0097 101.563 18.2556 102.077 18.7472C102.59 19.2389 102.846 19.8854 102.846 20.6897V23.0995C102.203 22.7626 101.473 22.4894 100.653 22.283C99.8329 22.0767 99.064 21.9735 98.3461 21.9735H95.9612C93.9337 21.9735 92.2997 22.4682 91.0562 23.4515C89.8127 24.4349 89.1909 25.7429 89.1909 27.3758V28.7749ZM101.115 29.8857C100.295 30.4685 99.3704 30.7598 98.3461 30.7598H96.1504C95.3575 30.7598 94.7147 30.5656 94.2281 30.1771C93.7415 29.7886 93.4982 29.2696 93.4982 28.6232V27.5336C93.4982 26.9145 93.7355 26.4076 94.2101 26.0191C94.6846 25.6307 95.3064 25.4364 96.0753 25.4364H98.4993C99.3704 25.4364 100.202 25.5487 100.998 25.7672C101.794 25.9888 102.41 26.2801 102.846 26.6413V27.5731C102.512 28.5321 101.935 29.303 101.115 29.8857Z" fill="#004A4C"/>
</svg>
